<svg width="178" height="32" viewBox="0 0 178 32" fill="none" xmlns="http://www.w3.org/2000/svg">
<path d="M159.1 24.9446V16.2455C159.1 11.1098 163.293 6.91748 168.428 6.91748H170V11.2146H168.428C165.703 11.2146 163.502 13.4156 163.502 16.1407V24.8398H159.1V24.9446Z" fill="#01478C"/>
<path d="M55.4441 24.9446V16.2455C55.4441 11.1098 59.6364 6.91748 64.7721 6.91748H66.3442V11.2146H64.7721C62.047 11.2146 59.8461 13.4156 59.8461 16.1407V24.8398H55.4441V24.9446Z" fill="#D64752"/>
<path d="M111.517 31.7572V27.46H113.089C115.29 27.46 117.177 26.0975 117.806 24.0013L117.911 23.6869L117.596 23.8965C116.234 24.6302 114.661 25.0494 113.089 25.0494H112.985C107.849 25.0494 103.761 20.8571 103.761 15.7214V6.91748H108.059V15.7214C108.059 18.4465 110.26 20.6474 112.985 20.6474C115.71 20.6474 117.911 18.4465 117.911 15.7214V7.02229H122.208V22.4292C122.208 27.5648 118.015 31.7572 112.88 31.7572H111.517Z" fill="#01478C"/>
<path d="M93.5947 6.91748H89.2975V24.9446H93.5947V6.91748Z" fill="#D64752"/>
<path d="M177.232 6.91748H172.935V24.9446H177.232V6.91748Z" fill="#01478C"/>
<path d="M100.931 0.104736H96.6342V24.9444H100.931V0.104736Z" fill="#D64752"/>
<path d="M155.851 24.9444C150.925 24.7348 146.943 20.6473 146.943 15.6165V0.104736H151.24V6.91731H156.061V11.2145H151.24V15.6165C151.24 18.2367 153.231 20.3329 155.851 20.5425H156.061V24.8396L155.851 24.9444Z" fill="#01478C"/>
<path d="M91.4985 4.40197C90.3456 4.40197 89.2975 3.45869 89.2975 2.20099C89.2975 1.04809 90.2408 0 91.4985 0C92.6514 0 93.6995 0.94328 93.6995 2.20099C93.5947 3.45869 92.6514 4.40197 91.4985 4.40197Z" fill="#D64752"/>
<path d="M175.136 4.40197C173.983 4.40197 172.935 3.45869 172.935 2.20099C172.935 1.04809 173.878 0 175.136 0C176.394 0 177.337 0.94328 177.337 2.20099C177.232 3.45869 176.289 4.40197 175.136 4.40197Z" fill="#01478C"/>
<path d="M134.365 6.91748C129.439 6.91748 125.352 10.9002 125.352 15.931C125.352 20.9619 129.335 24.9446 134.365 24.9446H143.379V15.931C143.379 11.005 139.396 6.91748 134.365 6.91748ZM129.754 15.931C129.754 13.3108 131.85 11.2146 134.47 11.2146C137.091 11.2146 139.187 13.3108 139.187 15.931C139.187 18.5513 137.091 20.6474 134.47 20.6474C131.85 20.6474 129.754 18.5513 129.754 15.931Z" fill="#01478C"/>
<path d="M77.035 6.91748C72.109 6.91748 68.0215 10.9002 68.0215 15.931C68.0215 20.9619 72.0042 24.9446 77.035 24.9446H86.0486V15.931C86.0486 11.005 81.9611 6.91748 77.035 6.91748ZM72.3186 15.931C72.3186 13.3108 74.4148 11.2146 77.035 11.2146C79.6553 11.2146 81.7514 13.3108 81.7514 15.931C81.7514 18.5513 79.6553 20.6474 77.035 20.6474C74.4148 20.6474 72.3186 18.5513 72.3186 15.931Z" fill="#D64752"/>
<path opacity="0.3" d="M8.69938 10.481H5.13588C4.08779 10.481 3.35413 9.64251 3.35413 8.69923C3.35413 7.65114 4.1926 6.91748 5.13588 6.91748H8.59457C9.64266 6.91748 10.3763 7.75595 10.3763 8.69923C10.4811 9.74732 9.64266 10.481 8.69938 10.481Z" fill="#01478C"/>
<path opacity="0.3" d="M5.24044 17.8177H1.78175C0.733662 17.8177 0 16.9792 0 16.0359C0 14.9878 0.838471 14.2542 1.78175 14.2542H5.24044C6.28853 14.2542 7.0222 15.0926 7.0222 16.0359C7.127 16.9792 6.28853 17.8177 5.24044 17.8177Z" fill="#01478C"/>
<path d="M37.9407 11.9483C34.5868 8.80404 30.8137 6.91748 25.5732 6.91748H14.2539C13.2058 6.91748 12.4721 7.75595 12.4721 8.69923C12.4721 9.64251 13.3106 10.481 14.2539 10.481H19.5991C20.6472 10.481 21.3809 11.3195 21.3809 12.2627C21.3809 13.3108 20.5424 14.0445 19.5991 14.0445H10.9C9.85189 14.0445 9.11823 14.883 9.11823 15.8262C9.11823 16.8743 9.9567 17.608 10.9 17.608H13.101C14.1491 17.608 14.8827 18.4465 14.8827 19.3897C14.8827 20.4378 14.0442 21.1715 13.101 21.1715H2.51527C1.46718 21.1715 0.733521 22.01 0.733521 22.9532C0.733521 23.8965 1.57199 24.735 2.51527 24.735C2.51527 24.735 37.8359 24.735 42.133 24.735C47.8975 25.0494 43.6004 17.3984 37.9407 11.9483ZM29.3463 14.1493C28.2983 14.1493 27.5646 13.3108 27.5646 12.3675C27.5646 11.3195 28.4031 10.5858 29.3463 10.5858H32.3858C33.5387 11.2146 34.5868 12.0531 35.7397 13.1012C36.1589 13.4156 36.4734 13.8349 36.7878 14.1493H29.3463Z" fill="#01478C"/>
</svg>
